# xmcd CD database file
#
# Track frame offsets:
#	183
#	12260
#	27333
#	42240
#	57373
#	70763
#	84580
#	96695
#	109853
#	124405
#	138253
#	153615
#	168735
#	180870
#	193288
#	208745
#	223943
#	236250
#
# Disc length: 3306 seconds
#
# Revision: 2
# Processed by: cddbd v1.5.1PL0 Copyright (c) Steve Scherf et al.
# Submitted via: CDex 1.51
#
DISCID=0c0ce812
DTITLE=Fats Waller - You Rascal You!
DYEAR=1987
DGENRE=Jazz
TTITLE0=Georgia May [Razaf, Denniker] [1934]
TTITLE1=I'm Crazy 'Bout My Baby [Waller, Hill] [1931]
TTITLE2=Breakin' The Ice [McCarthy, Cavenaugh, Weldon] [1934]
TTITLE3=Baby, Oh! Where Can You Be? [Koehler, Magine] [1929]
TTITLE4=If It Isn't Love [Burton, Jason] [1934]
TTITLE5=Won't You Get Off It, Please? [Waller] [1929]
TTITLE6=I Wish I Were Twins [De Lange, Loesser, Meyer] [1934]
TTITLE7=Numb Fumblin' [Waller] [1929]
TTITLE8=You Rascal, You! [Theard] [1931]
TTITLE9=Ain't Misbehavin' [Razaf, Waller, Brooks] [1929]
TTITLE10=A Porter's Love Song To A Chambermaid [Razaf, Johnson] [1934]
TTITLE11=Draggin' My Heart Around [Hill] [1931]
TTITLE12=The Minor Drag [Waller] [1929]
TTITLE13=My Fate Is In Your Hands [Razaf, Waller] [1929]
TTITLE14=That's What I Like About You [Donaldson] [1931]
TTITLE15=Harlem Fuss [Waller] [1929]
TTITLE16=Believe It, Beloved [Whiting, Schwartz] [1934]
TTITLE17=Honeysuckle Rose [Razaf, Waller] [1934]
EXTD=YEAR: 1987
EXTT0=
EXTT1=
EXTT2=
EXTT3=
EXTT4=
EXTT5=
EXTT6=
EXTT7=
EXTT8=
EXTT9=
EXTT10=
EXTT11=
EXTT12=
EXTT13=
EXTT14=
EXTT15=
EXTT16=
EXTT17=
PLAYORDER=
